<svg xmlns="http://www.w3.org/2000/svg" xmlns:xlink="http://www.w3.org/1999/xlink" width="363" height="135" viewBox="0 0 363 135"><defs><style>.a{fill:#fff;}.b{fill:#404040;font-size:18px;}.b,.c,.d{font-family:SegoeUI-Bold, Segoe UI;font-weight:700;}.c{fill:#b2b2b2;font-size:10px;}.d{fill:#989898;font-size:12px;}.e{fill:#ef505c;}.f{filter:url(#a);}</style><filter id="a" x="0" y="0" width="363" height="135" filterUnits="userSpaceOnUse"><feOffset dy="3" input="SourceAlpha"/><feGaussianBlur stdDeviation="3" result="b"/><feFlood flood-opacity="0.161"/><feComposite operator="in" in2="b"/><feComposite in="SourceGraphic"/></filter></defs><g transform="translate(-6 -308)"><g class="f" transform="matrix(1, 0, 0, 1, 6, 308)"><rect class="a" width="345" height="117" rx="19" transform="translate(9 6)"/></g><g transform="translate(4 3)"><text class="b" transform="translate(31 392)"><tspan x="8.477" y="19">12:58:1</tspan></text><text class="c" transform="translate(22 407)"><tspan x="0" y="0">س</tspan></text></g><text class="d" transform="translate(45 321)"><tspan x="5.971" y="13">الوقت</tspan><tspan y="13"></tspan><tspan x="1.963" y="25">المتبقى</tspan></text><g transform="translate(51 358.688)"><path class="e" d="M15.156.156a15,15,0,1,0,15,15A14.994,14.994,0,0,0,15.156.156Zm-1.2,3.321c.046,0,.1,0,.146,0v.584a1.058,1.058,0,0,0,2.117,0V3.477A11.729,11.729,0,0,1,26.835,14.1h-.693a1.06,1.06,0,0,0,.109,2.117h.584a11.729,11.729,0,0,1-10.62,10.62v-.584a1.046,1.046,0,0,0-.342-.794,1.034,1.034,0,0,0-.826-.265,1.046,1.046,0,0,0-.949,1.058v.584a11.729,11.729,0,0,1-10.62-10.62h.584a1.058,1.058,0,0,0,0-2.117H3.477A11.74,11.74,0,0,1,13.952,3.477Zm1.2,2.847a.857.857,0,0,0-.839.8l-.329,6.168a2.2,2.2,0,0,0-1.058,1.861,2.235,2.235,0,0,0,2.226,2.226c.064,0,.119-.032.183-.037L20.3,21.8a.988.988,0,0,0,1.35-.146,1.049,1.049,0,0,0,.183-1.387l-4.453-5.073v-.037a2.192,2.192,0,0,0-1.131-1.9L16,7.127A.857.857,0,0,0,15.156,6.324Z" transform="translate(-0.156 -0.156)"/></g><g transform="translate(4 4)"><text class="b" transform="translate(166 405)"><tspan x="0" y="0">1,500</tspan></text><text class="c" transform="translate(148 405)"><tspan x="0" y="0">ر.س</tspan></text></g><text class="d" transform="translate(156 320)"><tspan x="19.978" y="13">قيمة</tspan><tspan y="13"></tspan><tspan x="12.964" y="25">المزايدة</tspan></text><path class="e" d="M18.571,1.992a1.165,1.165,0,0,0-.825.361l-7.2,7.2a1.2,1.2,0,1,0,1.7,1.7l7.2-7.2a1.2,1.2,0,0,0,.267-1.326A1.183,1.183,0,0,0,18.571,1.992ZM20.993,5.6a1.225,1.225,0,0,0-.857.356L14.19,11.912a1.2,1.2,0,0,0,.033,1.8l7.113,7.118a1.2,1.2,0,0,0,.857.361,1.184,1.184,0,0,0,.848-.356L29.03,14.86a1.21,1.21,0,0,0,0-1.72L21.856,5.966a.037.037,0,0,0-.019-.019A1.2,1.2,0,0,0,20.993,5.6Zm10.773,9.582a1.189,1.189,0,0,0-.825.366l-7.2,7.2a1.2,1.2,0,1,0,1.7,1.7l7.2-7.2a1.2,1.2,0,0,0-.871-2.062ZM15.347,17.948,3.928,27.7a2.4,2.4,0,1,0,3.336,3.4s.009-.009.009-.014h0l9.765-11.443Z" transform="translate(170 353.517)"/><g transform="translate(7 4)"><text class="b" transform="translate(276 405)"><tspan x="0" y="0">18,000</tspan></text><text class="c" transform="translate(258 405)"><tspan x="0" y="0">ر.س</tspan></text></g><text class="d" transform="translate(269 320)"><tspan x="16.972" y="13">السعر</tspan><tspan y="13"></tspan><tspan x="15.97" y="25">الحالى</tspan></text><g transform="translate(281 353)"><path class="e" d="M21.2,3a8.4,8.4,0,1,0,8.4,8.4A8.416,8.416,0,0,0,21.2,3Zm0,2.4a6,6,0,1,1-6,6A5.982,5.982,0,0,1,21.2,5.4ZM31.4,7.861a10.892,10.892,0,0,1,.553,2.545A3.589,3.589,0,0,1,30.8,17.4a3.993,3.993,0,0,1-.586-.056A10.852,10.852,0,0,1,28.5,19.336,5.984,5.984,0,1,0,31.4,7.861ZM2,13.8V33H35.6V20.686a8.239,8.239,0,0,1-2.4,1.158v6.464a1.744,1.744,0,0,0-.6-.108A1.8,1.8,0,0,0,30.8,30a1.744,1.744,0,0,0,.108.6H6.7a1.855,1.855,0,0,0,.1-.6A1.8,1.8,0,0,0,5,28.2a1.744,1.744,0,0,0-.6.108V18.492A1.741,1.741,0,0,0,5,18.6a1.8,1.8,0,0,0,1.8-1.8,1.855,1.855,0,0,0-.1-.6h4.838a10.751,10.751,0,0,1-.858-2.4Zm13.12,6.525A4.8,4.8,0,1,0,23.6,23.4a4.9,4.9,0,0,0-.23-1.42,10.684,10.684,0,0,1-2.17.22c-.108,0-.211-.014-.319-.019A2.5,2.5,0,0,1,21.2,23.4a2.4,2.4,0,1,1-3.858-1.922A10.851,10.851,0,0,1,15.12,20.325ZM10.4,21.6a1.8,1.8,0,1,0,1.8,1.8A1.8,1.8,0,0,0,10.4,21.6Zm16.8,0A1.8,1.8,0,1,0,29,23.4,1.8,1.8,0,0,0,27.2,21.6Z"/></g></g></svg>